# xmcd CD database file
#
# Track frame offsets:
#	150
#	21445
#	45598
#
# Disc length: 1060 seconds
#
# Revision: 1
# Processed by: cddbd v1.5.2PL0 Copyright (c) Steve Scherf et al.
# Submitted via: CDex 1.70beta3
#
DISCID=1e042203
DTITLE=スネオヘアー - 悲しみロックフェスティバル
DYEAR=2005
DGENRE=Pop
TTITLE0=悲しみロックフェスティバル
TTITLE1=happy end(feat.azumi)
TTITLE2=1224(Bonus Track)
EXTD=YEAR: 2005
EXTT0=
EXTT1=
EXTT2=
PLAYORDER=
